<svg id="svg" version="1.1" xmlns="http://www.w3.org/2000/svg" xmlns:xlink="http://www.w3.org/1999/xlink" width="400" height="267" viewBox="0, 0, 400,267"><g id="svgg"><path id="path0" d="M0.000 129.239 L 0.000 258.478 28.037 258.478 L 56.075 258.478 56.077 261.348 C 56.078 262.927,56.155 264.850,56.248 265.621 L 56.416 267.023 228.208 267.023 L 400.000 267.023 400.000 133.511 L 400.000 0.000 200.000 0.000 L 0.000 0.000 0.000 129.239 M12.524 6.881 C 13.405 7.537,13.849 8.688,13.396 9.141 C 13.176 9.360,12.953 9.382,12.714 9.206 C 11.286 8.159,10.850 7.957,10.012 7.957 C 7.282 7.957,8.389 9.859,11.505 10.522 C 14.106 11.076,14.873 14.478,12.716 15.891 C 10.497 17.345,6.409 16.143,6.409 14.037 C 6.409 13.022,7.106 12.885,7.985 13.727 C 9.000 14.700,10.465 15.086,11.415 14.631 C 13.004 13.869,12.404 12.949,9.626 11.887 C 6.330 10.628,5.604 9.020,7.482 7.142 C 8.718 5.905,11.051 5.785,12.524 6.881 M53.405 11.348 L 53.405 16.288 52.640 16.288 C 51.769 16.288,51.535 15.409,51.535 12.134 C 51.535 9.881,51.404 9.599,50.443 9.791 C 48.935 10.093,49.791 8.044,51.645 6.913 C 53.400 5.843,53.405 5.854,53.405 11.348 M61.226 6.947 C 63.000 8.342,62.697 10.089,60.214 12.771 C 58.496 14.626,58.494 14.679,60.125 14.859 C 62.039 15.070,62.483 15.212,62.483 15.613 C 62.483 16.484,57.262 16.958,56.203 16.184 C 55.501 15.671,55.825 15.081,58.330 12.308 C 60.508 9.897,60.938 9.021,60.272 8.355 C 59.561 7.644,58.464 7.847,57.653 8.841 C 56.933 9.724,56.913 9.730,56.371 9.239 C 54.596 7.632,59.284 5.419,61.226 6.947 M348.827 8.050 C 348.921 8.953,348.999 10.799,348.999 12.154 L 348.999 14.616 350.000 14.782 C 350.551 14.873,351.369 14.949,351.818 14.950 C 353.168 14.955,353.773 15.559,352.983 16.113 C 352.146 16.699,347.891 16.751,347.417 16.180 C 347.026 15.708,346.721 9.988,346.977 7.934 C 347.278 5.525,348.572 5.606,348.827 8.050 M356.028 6.783 C 356.241 7.339,355.564 8.128,355.045 7.929 C 354.313 7.648,354.476 6.409,355.245 6.409 C 355.597 6.409,355.949 6.577,356.028 6.783 M390.942 7.189 C 392.293 8.540,391.908 10.340,389.758 12.723 C 388.121 14.537,388.189 14.953,390.120 14.953 C 391.223 14.953,391.722 15.210,391.722 15.778 C 391.722 16.455,390.872 16.630,388.136 16.516 C 384.590 16.368,384.525 15.882,387.601 12.531 C 389.611 10.342,390.143 9.330,389.674 8.588 C 389.074 7.636,388.614 7.622,387.475 8.525 C 385.690 9.938,384.745 8.805,386.361 7.189 C 387.505 6.046,389.799 6.046,390.942 7.189 M19.739 9.112 C 20.503 9.378,21.095 10.187,21.095 10.965 C 21.095 11.344,20.095 11.264,19.227 10.815 C 17.570 9.958,16.177 11.569,16.794 13.629 C 17.218 15.044,18.069 15.271,19.434 14.332 C 19.980 13.956,20.666 13.671,20.958 13.700 C 21.418 13.745,21.513 13.538,21.663 12.161 C 22.111 8.063,27.255 7.583,28.320 11.540 C 29.371 15.443,25.908 17.883,22.707 15.495 C 21.328 14.466,20.828 14.351,20.828 15.061 C 20.828 16.204,18.298 16.918,16.869 16.179 C 12.936 14.145,15.571 7.659,19.739 9.112 M32.960 9.167 C 33.562 9.607,33.118 10.681,32.333 10.681 C 31.519 10.681,31.200 11.358,30.925 13.678 C 30.645 16.033,30.456 16.454,29.791 16.199 C 29.087 15.929,29.186 10.067,29.907 9.346 C 30.531 8.721,32.216 8.622,32.960 9.167 M39.296 9.842 C 40.986 11.733,40.583 13.071,38.318 13.084 C 35.858 13.098,34.825 13.995,36.429 14.726 C 37.236 15.094,38.451 14.815,38.451 14.263 C 38.451 13.970,38.664 13.874,39.186 13.934 C 41.215 14.168,38.947 16.555,36.695 16.555 C 34.324 16.555,32.930 13.394,34.171 10.832 C 35.230 8.643,37.784 8.150,39.296 9.842 M43.153 9.499 C 43.380 10.405,42.958 10.825,42.218 10.429 C 41.909 10.264,41.656 10.022,41.656 9.892 C 41.656 8.712,42.875 8.392,43.153 9.499 M355.793 9.405 C 356.665 10.651,356.209 16.288,355.236 16.288 L 354.606 16.288 354.606 12.728 C 354.606 10.770,354.686 9.088,354.784 8.990 C 355.093 8.681,355.364 8.793,355.793 9.405 M358.148 9.279 C 358.511 9.682,358.976 10.721,359.790 12.951 C 360.028 13.603,360.448 12.974,361.150 10.913 C 361.918 8.657,363.426 8.138,362.985 10.280 C 361.957 15.281,359.949 17.582,358.849 15.020 C 356.875 10.425,356.514 7.464,358.148 9.279 M369.306 9.831 C 371.365 11.889,371.017 12.922,368.176 13.186 C 365.835 13.403,365.229 13.777,366.090 14.475 C 366.852 15.092,367.655 15.073,368.491 14.419 C 369.647 13.515,370.681 13.855,370.097 14.947 C 369.005 16.987,365.396 16.947,364.307 14.882 C 362.257 10.994,366.342 6.867,369.306 9.831 M375.847 9.467 C 377.110 10.731,376.501 11.522,374.809 10.815 C 372.318 9.774,372.748 10.978,375.297 12.181 C 377.382 13.165,377.585 15.142,375.698 16.088 C 373.718 17.080,371.429 16.318,371.429 14.667 C 371.429 13.702,371.802 13.679,373.102 14.562 C 373.903 15.107,374.203 15.183,374.633 14.953 C 375.580 14.446,374.917 13.621,373.227 13.206 C 371.584 12.802,370.883 10.628,372.009 9.430 C 372.853 8.532,374.931 8.552,375.847 9.467 M379.840 9.750 C 379.840 10.368,379.720 10.547,379.309 10.547 C 378.754 10.547,378.480 9.877,378.748 9.177 C 379.027 8.450,379.840 8.876,379.840 9.750 M24.360 10.587 C 22.618 11.318,23.241 14.953,25.109 14.953 C 26.046 14.953,26.347 14.562,26.551 13.084 C 26.819 11.141,25.802 9.982,24.360 10.587 M36.515 10.598 C 36.258 10.665,36.048 10.952,36.048 11.235 C 36.048 11.824,37.733 11.996,38.076 11.441 C 38.247 11.164,37.495 10.369,37.132 10.445 C 37.050 10.462,36.772 10.531,36.515 10.598 M366.288 10.702 C 365.335 11.258,365.895 12.016,367.258 12.016 C 368.104 12.016,368.529 11.517,368.202 10.907 C 367.914 10.369,367.025 10.273,366.288 10.702 M43.209 15.554 C 43.282 16.188,43.199 16.288,42.599 16.288 C 41.861 16.288,41.495 15.757,41.759 15.068 C 42.036 14.347,43.111 14.707,43.209 15.554 M379.976 15.226 C 380.329 15.886,380.117 16.288,379.415 16.288 C 378.830 16.288,378.499 15.702,378.735 15.087 C 378.954 14.515,379.637 14.592,379.976 15.226 M62.901 39.056 C 68.504 41.910,69.051 49.569,63.908 53.150 C 58.658 56.805,51.524 53.370,51.062 46.965 C 50.608 40.660,57.287 36.198,62.901 39.056 M300.134 58.067 L 300.134 66.200 294.726 66.287 C 291.752 66.334,277.694 66.400,263.485 66.433 L 237.650 66.494 237.650 58.214 L 237.650 49.933 268.892 49.933 L 300.134 49.933 300.134 58.067 M75.413 74.677 L 86.295 74.854 86.572 75.544 C 86.968 76.530,87.010 90.663,86.618 91.057 C 86.305 91.372,24.632 91.477,24.319 91.163 C 24.075 90.920,24.142 75.370,24.388 75.123 C 24.809 74.700,58.678 74.404,75.413 74.677 M300.071 83.111 L 300.141 91.322 268.896 91.322 L 237.650 91.322 237.650 83.222 C 237.650 78.767,237.731 75.042,237.829 74.943 C 237.928 74.845,251.957 74.795,269.004 74.832 L 300.000 74.900 300.071 83.111 " stroke="none" fill="#ebebec" fill-rule="evenodd"></path><path id="path1" d="M237.650 58.214 L 237.650 66.494 263.485 66.433 C 277.694 66.400,291.752 66.334,294.726 66.287 L 300.134 66.200 300.134 58.067 L 300.134 49.933 268.892 49.933 L 237.650 49.933 237.650 58.214 M35.069 74.756 C 29.316 74.835,24.510 75.000,24.388 75.123 C 24.142 75.370,24.075 90.920,24.319 91.163 C 24.632 91.477,86.305 91.372,86.618 91.057 C 87.010 90.663,86.968 76.530,86.572 75.544 L 86.295 74.854 75.413 74.677 C 64.052 74.492,52.705 74.514,35.069 74.756 M237.829 74.943 C 237.731 75.042,237.650 78.767,237.650 83.222 L 237.650 91.322 268.896 91.322 L 300.141 91.322 300.071 83.111 L 300.000 74.900 269.004 74.832 C 251.957 74.795,237.928 74.845,237.829 74.943 M0.000 262.750 L 0.000 267.023 28.208 267.023 L 56.416 267.023 56.248 265.621 C 56.155 264.850,56.078 262.927,56.077 261.348 L 56.075 258.478 28.037 258.478 L 0.000 258.478 0.000 262.750 " stroke="none" fill="#cc36fb" fill-rule="evenodd"></path><path id="path2" d="M7.471 7.183 C 5.644 9.104,6.345 10.634,9.626 11.887 C 12.342 12.925,12.934 13.713,11.638 14.563 C 10.751 15.144,9.262 14.831,8.112 13.821 C 7.101 12.933,6.409 12.994,6.409 13.971 C 6.409 15.923,9.698 17.196,12.123 16.183 C 14.718 15.099,14.343 11.141,11.589 10.543 C 8.392 9.850,7.210 7.852,10.044 7.932 C 10.855 7.955,11.294 8.165,12.714 9.206 C 13.300 9.636,13.771 8.951,13.470 8.106 C 13.072 6.988,12.018 6.382,10.182 6.216 L 8.534 6.066 7.471 7.183 M51.508 7.056 C 49.765 8.240,48.982 10.109,50.375 9.760 C 51.315 9.524,51.526 9.910,51.534 11.883 C 51.547 15.338,51.786 16.288,52.641 16.288 L 53.405 16.288 53.405 11.348 C 53.405 5.792,53.396 5.773,51.508 7.056 M57.403 6.864 C 56.057 7.791,55.723 8.722,56.503 9.369 C 56.873 9.676,57.031 9.603,57.659 8.834 C 58.464 7.847,59.563 7.646,60.272 8.355 C 60.933 9.016,60.514 9.883,58.365 12.305 C 55.787 15.211,55.521 15.686,56.200 16.182 C 57.242 16.943,62.483 16.489,62.483 15.637 C 62.483 15.164,61.887 14.954,60.526 14.949 C 58.571 14.942,58.445 14.613,59.839 13.161 C 62.144 10.760,62.687 9.550,62.097 8.137 C 61.401 6.471,58.940 5.804,57.403 6.864 M346.982 8.185 C 346.686 10.948,347.056 15.813,347.594 16.222 C 348.277 16.741,352.199 16.662,352.983 16.113 C 353.811 15.533,353.145 14.953,351.651 14.953 C 351.110 14.953,350.292 14.878,349.833 14.786 L 348.999 14.619 348.997 12.316 C 348.993 7.670,348.762 6.409,347.913 6.409 C 347.196 6.409,347.166 6.467,346.982 8.185 M354.606 7.084 C 354.606 7.949,355.360 8.268,355.842 7.609 C 356.269 7.025,355.892 6.409,355.107 6.409 C 354.749 6.409,354.606 6.601,354.606 7.084 M386.361 7.189 C 384.797 8.753,385.680 9.963,387.370 8.570 C 390.034 6.375,390.845 9.456,388.242 11.883 C 387.051 12.992,385.314 15.199,385.314 15.602 C 385.314 16.381,389.791 16.973,391.300 16.393 C 392.416 15.965,391.587 14.953,390.120 14.953 C 388.189 14.953,388.121 14.537,389.758 12.723 C 391.908 10.340,392.293 8.540,390.942 7.189 C 389.799 6.046,387.505 6.046,386.361 7.189 M17.223 9.066 C 13.509 10.603,14.833 17.000,18.756 16.474 C 19.841 16.328,20.828 15.656,20.828 15.061 C 20.828 14.338,21.359 14.457,22.730 15.488 C 25.560 17.614,28.417 16.205,28.417 12.684 C 28.417 7.678,22.175 7.432,21.639 12.417 C 21.517 13.550,21.415 13.744,20.961 13.700 C 20.668 13.671,19.980 13.956,19.434 14.332 C 18.069 15.271,17.218 15.044,16.794 13.629 C 16.177 11.569,17.570 9.958,19.227 10.815 C 20.095 11.264,21.095 11.344,21.095 10.965 C 21.095 9.387,18.969 8.344,17.223 9.066 M30.040 9.169 C 29.289 9.731,29.050 15.914,29.769 16.190 C 30.469 16.459,30.681 16.012,30.865 13.879 C 31.054 11.690,31.509 10.681,32.307 10.681 C 32.940 10.681,33.552 9.680,33.159 9.287 C 32.682 8.811,30.624 8.733,30.040 9.169 M35.514 9.249 C 32.667 11.267,33.471 16.570,36.622 16.550 C 38.492 16.537,40.495 15.083,39.921 14.155 C 39.649 13.714,38.869 13.847,38.380 14.419 C 37.623 15.304,35.781 14.941,35.781 13.907 C 35.781 13.316,36.482 13.093,38.352 13.088 C 40.119 13.083,40.519 12.664,40.098 11.257 C 39.486 9.216,37.059 8.153,35.514 9.249 M41.818 9.234 C 41.557 9.914,41.622 10.110,42.218 10.429 C 42.958 10.825,43.380 10.405,43.153 9.499 C 42.959 8.724,42.080 8.550,41.818 9.234 M354.784 8.990 C 354.686 9.088,354.606 10.770,354.606 12.728 L 354.606 16.288 355.248 16.288 C 355.872 16.288,355.895 16.213,356.079 13.521 C 356.317 10.015,355.749 8.025,354.784 8.990 M357.097 9.235 C 356.722 10.214,359.132 16.288,359.896 16.288 C 361.139 16.288,363.622 10.270,362.875 9.066 C 362.497 8.457,361.690 9.452,360.954 11.436 C 360.152 13.600,360.018 13.596,359.176 11.381 C 358.411 9.368,357.433 8.359,357.097 9.235 M365.491 9.230 C 363.240 10.451,363.377 15.187,365.694 16.243 C 367.065 16.867,369.444 16.168,370.097 14.947 C 370.681 13.855,369.647 13.515,368.491 14.419 C 367.677 15.056,366.937 15.091,366.135 14.529 C 365.198 13.873,365.840 13.408,367.974 13.198 C 371.012 12.898,371.398 11.923,369.306 9.831 C 368.165 8.690,366.863 8.485,365.491 9.230 M372.009 9.430 C 370.758 10.762,371.344 12.218,373.570 13.311 C 375.198 14.110,375.457 14.512,374.627 14.956 C 374.148 15.213,373.893 15.150,373.061 14.574 C 371.779 13.685,371.429 13.705,371.429 14.667 C 371.429 16.318,373.718 17.080,375.698 16.088 C 377.585 15.142,377.382 13.165,375.297 12.181 C 372.748 10.978,372.318 9.774,374.809 10.815 C 376.501 11.522,377.110 10.731,375.847 9.467 C 374.931 8.552,372.853 8.532,372.009 9.430 M378.825 8.981 C 378.555 9.251,378.595 10.356,378.881 10.533 C 379.403 10.855,380.002 10.345,379.921 9.648 C 379.843 8.976,379.213 8.593,378.825 8.981 M26.393 11.307 C 26.802 12.164,26.614 14.218,26.088 14.623 C 24.780 15.632,23.364 14.624,23.364 12.683 C 23.364 10.542,25.554 9.547,26.393 11.307 M37.799 10.796 C 38.568 11.364,37.901 11.874,36.515 11.781 C 35.978 11.744,35.871 10.797,36.382 10.591 C 36.959 10.358,37.265 10.402,37.799 10.796 M368.202 10.907 C 368.529 11.517,368.104 12.016,367.258 12.016 C 365.895 12.016,365.335 11.258,366.288 10.702 C 367.025 10.273,367.914 10.369,368.202 10.907 M41.759 15.068 C 41.495 15.757,41.861 16.288,42.599 16.288 C 43.199 16.288,43.282 16.188,43.209 15.554 C 43.111 14.707,42.036 14.347,41.759 15.068 M378.742 15.067 C 378.494 15.713,378.827 16.288,379.449 16.288 C 379.902 16.288,379.993 16.149,379.924 15.556 C 379.829 14.735,379.001 14.392,378.742 15.067 " stroke="none" fill="#41a9e4" fill-rule="evenodd"></path><path id="path3" d="M56.687 38.555 C 50.754 40.494,49.071 48.282,53.685 52.450 C 60.269 58.398,70.317 51.208,66.764 43.091 C 65.148 39.400,60.502 37.309,56.687 38.555 " stroke="none" fill="#fbfb11" fill-rule="evenodd"></path></g></svg>