<svg id="svg" version="1.1" xmlns="http://www.w3.org/2000/svg" xmlns:xlink="http://www.w3.org/1999/xlink" width="400" height="267" viewBox="0, 0, 400,267"><g id="svgg"><path id="path0" d="M237.650 58.214 L 237.650 66.494 263.485 66.433 C 277.694 66.400,291.752 66.334,294.726 66.287 L 300.134 66.200 300.134 58.067 L 300.134 49.933 268.892 49.933 L 237.650 49.933 237.650 58.214 M35.069 74.756 C 29.316 74.835,24.510 75.000,24.388 75.123 C 24.142 75.370,24.075 90.920,24.319 91.163 C 24.632 91.477,86.305 91.372,86.618 91.057 C 87.010 90.663,86.968 76.530,86.572 75.544 L 86.295 74.854 75.413 74.677 C 64.052 74.492,52.705 74.514,35.069 74.756 M237.829 74.943 C 237.731 75.042,237.650 78.767,237.650 83.222 L 237.650 91.322 268.896 91.322 L 300.141 91.322 300.071 83.111 L 300.000 74.900 269.004 74.832 C 251.957 74.795,237.928 74.845,237.829 74.943 M0.000 262.750 L 0.000 267.023 28.208 267.023 L 56.416 267.023 56.248 265.621 C 56.155 264.850,56.078 262.927,56.077 261.348 L 56.075 258.478 28.037 258.478 L 0.000 258.478 0.000 262.750 " stroke="none" fill="#cc36fb" fill-rule="evenodd"></path><path id="path1" d="M7.471 7.183 C 5.644 9.104,6.345 10.634,9.626 11.887 C 12.342 12.925,12.934 13.713,11.638 14.563 C 10.751 15.144,9.262 14.831,8.112 13.821 C 7.101 12.933,6.409 12.994,6.409 13.971 C 6.409 15.923,9.698 17.196,12.123 16.183 C 14.718 15.099,14.343 11.141,11.589 10.543 C 8.392 9.850,7.210 7.852,10.044 7.932 C 10.855 7.955,11.294 8.165,12.714 9.206 C 13.300 9.636,13.771 8.951,13.470 8.106 C 13.072 6.988,12.018 6.382,10.182 6.216 L 8.534 6.066 7.471 7.183 M51.508 7.056 C 49.765 8.240,48.982 10.109,50.375 9.760 C 51.315 9.524,51.526 9.910,51.534 11.883 C 51.547 15.338,51.786 16.288,52.641 16.288 L 53.405 16.288 53.405 11.348 C 53.405 5.792,53.396 5.773,51.508 7.056 M57.403 6.864 C 56.057 7.791,55.723 8.722,56.503 9.369 C 56.873 9.676,57.031 9.603,57.659 8.834 C 58.464 7.847,59.563 7.646,60.272 8.355 C 60.933 9.016,60.514 9.883,58.365 12.305 C 55.787 15.211,55.521 15.686,56.200 16.182 C 57.242 16.943,62.483 16.489,62.483 15.637 C 62.483 15.164,61.887 14.954,60.526 14.949 C 58.571 14.942,58.445 14.613,59.839 13.161 C 62.144 10.760,62.687 9.550,62.097 8.137 C 61.401 6.471,58.940 5.804,57.403 6.864 M346.982 8.185 C 346.686 10.948,347.056 15.813,347.594 16.222 C 348.277 16.741,352.199 16.662,352.983 16.113 C 353.811 15.533,353.145 14.953,351.651 14.953 C 351.110 14.953,350.292 14.878,349.833 14.786 L 348.999 14.619 348.997 12.316 C 348.993 7.670,348.762 6.409,347.913 6.409 C 347.196 6.409,347.166 6.467,346.982 8.185 M354.606 7.084 C 354.606 7.949,355.360 8.268,355.842 7.609 C 356.269 7.025,355.892 6.409,355.107 6.409 C 354.749 6.409,354.606 6.601,354.606 7.084 M386.361 7.189 C 384.797 8.753,385.680 9.963,387.370 8.570 C 390.034 6.375,390.845 9.456,388.242 11.883 C 387.051 12.992,385.314 15.199,385.314 15.602 C 385.314 16.381,389.791 16.973,391.300 16.393 C 392.416 15.965,391.587 14.953,390.120 14.953 C 388.189 14.953,388.121 14.537,389.758 12.723 C 391.908 10.340,392.293 8.540,390.942 7.189 C 389.799 6.046,387.505 6.046,386.361 7.189 M17.223 9.066 C 13.509 10.603,14.833 17.000,18.756 16.474 C 19.841 16.328,20.828 15.656,20.828 15.061 C 20.828 14.338,21.359 14.457,22.730 15.488 C 25.560 17.614,28.417 16.205,28.417 12.684 C 28.417 7.678,22.175 7.432,21.639 12.417 C 21.517 13.550,21.415 13.744,20.961 13.700 C 20.668 13.671,19.980 13.956,19.434 14.332 C 18.069 15.271,17.218 15.044,16.794 13.629 C 16.177 11.569,17.570 9.958,19.227 10.815 C 20.095 11.264,21.095 11.344,21.095 10.965 C 21.095 9.387,18.969 8.344,17.223 9.066 M30.040 9.169 C 29.289 9.731,29.050 15.914,29.769 16.190 C 30.469 16.459,30.681 16.012,30.865 13.879 C 31.054 11.690,31.509 10.681,32.307 10.681 C 32.940 10.681,33.552 9.680,33.159 9.287 C 32.682 8.811,30.624 8.733,30.040 9.169 M35.514 9.249 C 32.667 11.267,33.471 16.570,36.622 16.550 C 38.492 16.537,40.495 15.083,39.921 14.155 C 39.649 13.714,38.869 13.847,38.380 14.419 C 37.623 15.304,35.781 14.941,35.781 13.907 C 35.781 13.316,36.482 13.093,38.352 13.088 C 40.119 13.083,40.519 12.664,40.098 11.257 C 39.486 9.216,37.059 8.153,35.514 9.249 M41.818 9.234 C 41.557 9.914,41.622 10.110,42.218 10.429 C 42.958 10.825,43.380 10.405,43.153 9.499 C 42.959 8.724,42.080 8.550,41.818 9.234 M354.784 8.990 C 354.686 9.088,354.606 10.770,354.606 12.728 L 354.606 16.288 355.248 16.288 C 355.872 16.288,355.895 16.213,356.079 13.521 C 356.317 10.015,355.749 8.025,354.784 8.990 M357.097 9.235 C 356.722 10.214,359.132 16.288,359.896 16.288 C 361.139 16.288,363.622 10.270,362.875 9.066 C 362.497 8.457,361.690 9.452,360.954 11.436 C 360.152 13.600,360.018 13.596,359.176 11.381 C 358.411 9.368,357.433 8.359,357.097 9.235 M365.491 9.230 C 363.240 10.451,363.377 15.187,365.694 16.243 C 367.065 16.867,369.444 16.168,370.097 14.947 C 370.681 13.855,369.647 13.515,368.491 14.419 C 367.677 15.056,366.937 15.091,366.135 14.529 C 365.198 13.873,365.840 13.408,367.974 13.198 C 371.012 12.898,371.398 11.923,369.306 9.831 C 368.165 8.690,366.863 8.485,365.491 9.230 M372.009 9.430 C 370.758 10.762,371.344 12.218,373.570 13.311 C 375.198 14.110,375.457 14.512,374.627 14.956 C 374.148 15.213,373.893 15.150,373.061 14.574 C 371.779 13.685,371.429 13.705,371.429 14.667 C 371.429 16.318,373.718 17.080,375.698 16.088 C 377.585 15.142,377.382 13.165,375.297 12.181 C 372.748 10.978,372.318 9.774,374.809 10.815 C 376.501 11.522,377.110 10.731,375.847 9.467 C 374.931 8.552,372.853 8.532,372.009 9.430 M378.825 8.981 C 378.555 9.251,378.595 10.356,378.881 10.533 C 379.403 10.855,380.002 10.345,379.921 9.648 C 379.843 8.976,379.213 8.593,378.825 8.981 M26.393 11.307 C 26.802 12.164,26.614 14.218,26.088 14.623 C 24.780 15.632,23.364 14.624,23.364 12.683 C 23.364 10.542,25.554 9.547,26.393 11.307 M37.799 10.796 C 38.568 11.364,37.901 11.874,36.515 11.781 C 35.978 11.744,35.871 10.797,36.382 10.591 C 36.959 10.358,37.265 10.402,37.799 10.796 M368.202 10.907 C 368.529 11.517,368.104 12.016,367.258 12.016 C 365.895 12.016,365.335 11.258,366.288 10.702 C 367.025 10.273,367.914 10.369,368.202 10.907 M41.759 15.068 C 41.495 15.757,41.861 16.288,42.599 16.288 C 43.199 16.288,43.282 16.188,43.209 15.554 C 43.111 14.707,42.036 14.347,41.759 15.068 M378.742 15.067 C 378.494 15.713,378.827 16.288,379.449 16.288 C 379.902 16.288,379.993 16.149,379.924 15.556 C 379.829 14.735,379.001 14.392,378.742 15.067 " stroke="none" fill="#41a9e4" fill-rule="evenodd"></path><path id="path2" d="M56.687 38.555 C 50.754 40.494,49.071 48.282,53.685 52.450 C 60.269 58.398,70.317 51.208,66.764 43.091 C 65.148 39.400,60.502 37.309,56.687 38.555 " stroke="none" fill="#fbfb11" fill-rule="evenodd"></path></g></svg>