<svg id="svg" version="1.1" xmlns="http://www.w3.org/2000/svg" xmlns:xlink="http://www.w3.org/1999/xlink" width="400" height="223.38072669826224" viewBox="0, 0, 400,223.38072669826224"><g id="svgg"><path id="path0" d="M168.903 53.500 C 168.903 55.196,168.927 55.890,168.958 55.042 C 168.988 54.194,168.988 52.806,168.958 51.958 C 168.927 51.110,168.903 51.804,168.903 53.500 M249.775 52.458 C 249.733 52.527,250.684 52.564,251.891 52.540 C 255.877 52.461,256.293 52.399,253.052 52.366 C 251.292 52.348,249.818 52.390,249.775 52.458 M180.000 98.115 C 167.612 100.198,163.479 116.225,173.314 124.040 C 182.805 131.583,196.667 124.782,196.667 112.583 C 196.667 103.600,188.669 96.658,180.000 98.115 M240.833 112.583 L 240.833 127.167 255.250 127.167 L 269.667 127.167 269.667 112.583 L 269.667 98.000 255.250 98.000 L 240.833 98.000 240.833 112.583 M215.082 102.375 C 212.974 104.506,209.834 107.685,208.104 109.439 L 204.958 112.629 211.936 119.665 L 218.915 126.701 225.854 119.642 L 232.793 112.583 232.491 112.167 C 232.324 111.938,229.202 108.769,225.551 105.125 L 218.915 98.499 215.082 102.375 M142.882 105.378 C 141.214 108.241,137.969 113.808,135.673 117.750 L 131.497 124.917 145.859 124.959 C 153.758 124.983,160.248 124.974,160.282 124.940 C 160.316 124.907,159.692 123.763,158.896 122.398 C 158.101 121.033,157.036 119.204,156.531 118.333 C 156.025 117.462,153.688 113.450,151.336 109.417 C 148.984 105.383,146.816 101.652,146.518 101.125 C 146.220 100.598,145.962 100.168,145.946 100.169 C 145.930 100.171,144.551 102.515,142.882 105.378 M146.816 174.717 C 146.889 174.790,147.467 174.827,148.100 174.798 L 149.250 174.747 147.966 174.665 C 147.260 174.620,146.742 174.643,146.816 174.717 M181.237 177.833 C 181.237 179.713,181.261 180.481,181.291 179.542 C 181.321 178.602,181.321 177.065,181.291 176.125 C 181.261 175.185,181.237 175.954,181.237 177.833 M178.569 178.333 C 178.569 180.029,178.594 180.723,178.624 179.875 C 178.654 179.027,178.654 177.640,178.624 176.792 C 178.594 175.944,178.569 176.637,178.569 178.333 M156.875 203.792 C 180.960 203.815,220.373 203.815,244.458 203.792 C 268.544 203.768,248.838 203.749,200.667 203.749 C 152.496 203.749,132.790 203.768,156.875 203.792 " stroke="none" fill="#0cfc1c" fill-rule="evenodd"></path><path id="path1" d="M111.867 20.815 C 110.223 21.384,108.863 22.881,108.514 24.505 C 108.181 26.062,108.266 199.881,108.602 201.010 C 109.116 202.742,110.490 204.085,112.167 204.493 C 112.707 204.625,137.520 204.663,201.083 204.630 L 289.250 204.583 290.104 204.133 C 291.176 203.567,292.237 202.376,292.575 201.359 C 292.809 200.654,292.830 191.852,292.792 112.330 L 292.750 24.083 292.256 23.191 C 291.707 22.200,290.961 21.512,289.833 20.954 L 289.083 20.583 200.917 20.547 C 115.836 20.511,112.719 20.521,111.867 20.815 M289.037 21.674 C 289.965 21.932,291.012 22.816,291.491 23.747 L 291.917 24.574 291.917 112.662 L 291.917 200.750 291.554 201.428 C 291.087 202.300,290.054 203.231,289.230 203.522 C 288.685 203.714,274.677 203.750,200.500 203.750 L 112.417 203.750 111.522 203.254 C 110.507 202.692,109.954 202.051,109.587 201.009 C 109.361 200.370,109.334 190.623,109.337 112.521 L 109.341 24.750 109.680 24.000 C 110.136 22.993,110.748 22.371,111.750 21.897 L 112.583 21.503 200.500 21.503 C 260.554 21.502,288.613 21.556,289.037 21.674 M144.667 43.425 C 144.667 43.475,145.075 44.919,145.575 46.633 C 146.074 48.347,146.791 50.875,147.168 52.250 C 147.544 53.625,147.966 55.144,148.105 55.625 L 148.357 56.500 149.675 56.500 C 150.906 56.500,150.999 56.475,151.080 56.125 C 151.343 54.986,152.649 48.637,152.751 48.000 C 152.818 47.587,152.913 47.182,152.963 47.098 C 153.012 47.014,153.378 48.552,153.775 50.515 C 154.172 52.477,154.618 54.627,154.765 55.292 L 155.033 56.500 156.393 56.500 L 157.753 56.500 158.568 53.542 C 159.016 51.915,159.821 49.046,160.357 47.167 C 160.892 45.288,161.331 43.656,161.332 43.542 C 161.333 43.392,160.946 43.333,159.946 43.333 L 158.559 43.333 157.595 47.542 C 156.475 52.435,156.489 52.378,156.406 52.295 C 156.371 52.260,155.962 50.360,155.497 48.074 C 155.032 45.787,154.612 43.785,154.564 43.625 C 154.490 43.376,154.263 43.333,153.008 43.333 L 151.539 43.333 150.765 47.375 C 150.339 49.598,149.931 51.642,149.858 51.917 L 149.724 52.417 149.598 51.833 C 149.529 51.512,149.066 49.505,148.570 47.373 C 148.073 45.241,147.667 43.460,147.667 43.415 C 147.667 43.370,146.992 43.333,146.167 43.333 C 145.342 43.333,144.667 43.375,144.667 43.425 M162.951 43.438 C 162.886 43.502,162.833 46.468,162.833 50.028 L 162.833 56.500 164.070 56.500 L 165.307 56.500 165.362 53.375 C 165.434 49.282,165.989 48.261,167.840 48.816 C 168.800 49.103,168.893 49.468,168.966 53.208 L 169.030 56.500 170.368 56.500 L 171.706 56.500 171.632 52.708 C 171.551 48.533,171.459 48.083,170.524 47.296 C 169.409 46.358,167.107 46.344,166.008 47.269 C 165.333 47.837,165.348 47.873,165.297 45.542 L 165.250 43.417 164.160 43.368 C 163.560 43.342,163.016 43.373,162.951 43.438 M174.000 44.500 L 174.000 45.667 175.333 45.667 L 176.667 45.667 176.667 44.500 L 176.667 43.333 175.333 43.333 L 174.000 43.333 174.000 44.500 M189.167 49.909 L 189.167 56.500 190.399 56.500 L 191.631 56.500 191.691 53.375 C 191.761 49.721,191.905 49.268,193.126 48.841 C 194.919 48.214,195.331 49.076,195.332 53.458 L 195.333 56.500 196.682 56.500 L 198.031 56.500 197.971 52.625 C 197.905 48.377,197.853 48.134,196.841 47.282 C 195.743 46.358,193.432 46.351,192.341 47.269 C 191.666 47.837,191.681 47.873,191.630 45.542 L 191.583 43.417 190.375 43.368 L 189.167 43.319 189.167 49.909 M215.500 49.917 L 215.500 56.500 216.734 56.500 L 217.969 56.500 218.026 53.375 C 218.093 49.721,218.236 49.269,219.459 48.841 C 221.253 48.214,221.664 49.076,221.666 53.458 L 221.667 56.500 223.016 56.500 L 224.365 56.500 224.304 52.625 C 224.254 49.377,224.198 48.666,223.961 48.228 C 222.995 46.444,220.138 45.990,218.565 47.372 L 218.000 47.868 218.000 45.601 L 218.000 43.333 216.750 43.333 L 215.500 43.333 215.500 49.917 M181.984 46.664 C 179.118 47.167,177.560 50.883,178.824 54.203 C 180.131 57.636,185.366 57.792,186.986 54.446 C 187.624 53.128,187.538 53.000,186.013 53.000 L 184.693 53.000 184.584 53.498 C 184.238 55.071,182.068 55.000,181.396 53.394 C 180.850 52.085,181.295 49.466,182.142 49.013 C 183.104 48.498,184.357 48.957,184.597 49.912 C 184.749 50.518,187.333 50.579,187.333 49.978 C 187.333 47.673,184.884 46.155,181.984 46.664 M207.296 46.765 C 205.825 47.218,204.876 48.622,205.043 50.101 C 205.205 51.541,206.041 52.138,208.885 52.847 C 210.553 53.262,211.097 53.598,210.935 54.110 C 210.581 55.225,208.031 55.048,207.512 53.873 C 207.274 53.335,207.269 53.333,206.048 53.333 C 204.608 53.333,204.483 53.470,204.907 54.582 C 206.189 57.939,213.047 57.526,213.595 54.059 C 213.899 52.131,212.823 51.150,209.516 50.341 C 208.005 49.972,207.667 49.787,207.667 49.333 C 207.667 48.234,210.103 48.272,210.634 49.380 C 210.946 50.031,213.333 50.095,213.333 49.452 C 213.333 47.288,210.171 45.881,207.296 46.765 M229.583 46.613 C 227.564 46.912,226.497 47.826,226.309 49.418 L 226.250 49.917 227.450 49.965 C 228.636 50.014,228.654 50.008,228.910 49.512 C 229.499 48.374,231.581 48.349,231.875 49.476 C 232.035 50.087,231.542 50.405,230.167 50.575 C 227.078 50.958,226.000 51.834,226.000 53.959 C 226.000 56.555,228.852 57.700,231.255 56.069 C 231.885 55.641,232.157 55.708,232.164 56.292 C 232.166 56.442,232.562 56.500,233.583 56.500 C 235.028 56.500,235.293 56.359,234.792 55.859 C 234.643 55.711,234.559 54.609,234.500 52.034 C 234.416 48.367,234.360 48.044,233.715 47.461 C 233.060 46.867,230.882 46.420,229.583 46.613 M241.270 46.690 C 240.739 46.770,240.234 46.991,239.812 47.330 L 239.167 47.849 239.167 47.341 L 239.167 46.833 237.917 46.833 L 236.667 46.833 236.667 53.583 L 236.667 60.333 237.917 60.333 L 239.167 60.333 239.167 57.899 L 239.167 55.465 239.747 55.975 C 242.320 58.234,245.789 56.067,245.965 52.092 C 246.138 48.224,244.399 46.223,241.270 46.690 M250.750 46.604 C 247.963 47.311,246.761 49.422,247.182 52.870 C 247.736 57.399,255.011 58.416,256.090 54.115 L 256.203 53.667 254.861 53.667 C 253.747 53.667,253.482 53.719,253.301 53.974 C 252.398 55.247,250.198 54.712,249.844 53.133 C 249.656 52.295,249.497 52.333,253.135 52.333 L 256.381 52.333 256.289 51.107 C 256.048 47.928,253.547 45.894,250.750 46.604 M174.000 51.667 L 174.000 56.500 175.333 56.500 L 176.667 56.500 176.667 51.667 L 176.667 46.833 175.333 46.833 L 174.000 46.833 174.000 51.667 M253.042 49.326 C 253.294 49.608,253.500 50.025,253.500 50.253 L 253.500 50.667 251.667 50.667 C 250.658 50.667,249.833 50.603,249.833 50.525 C 249.833 48.897,251.952 48.106,253.042 49.326 M242.094 49.077 C 243.556 49.688,243.804 52.924,242.480 54.103 C 241.019 55.404,239.162 54.118,239.170 51.811 C 239.178 49.515,240.403 48.370,242.094 49.077 M231.922 52.772 C 231.765 53.820,231.555 54.229,231.009 54.551 C 230.078 55.102,228.907 54.921,228.717 54.197 C 228.425 53.090,228.705 52.771,230.337 52.350 C 232.121 51.890,232.057 51.873,231.922 52.772 M259.127 168.227 C 257.795 168.724,256.759 169.841,256.578 170.978 C 256.524 171.311,256.445 171.755,256.402 171.965 C 256.325 172.342,256.343 172.346,257.697 172.298 L 259.071 172.250 259.185 171.687 C 259.600 169.653,262.667 169.855,262.667 171.917 C 262.667 172.604,262.249 173.235,261.330 173.934 C 260.248 174.758,259.893 175.342,259.746 176.542 L 259.628 177.500 260.876 177.500 L 262.124 177.500 262.228 176.849 C 262.315 176.304,262.538 176.013,263.595 175.068 C 265.418 173.436,265.797 172.439,265.275 170.646 C 264.689 168.628,261.459 167.358,259.127 168.227 M136.000 174.750 L 136.000 181.333 137.250 181.333 L 138.500 181.333 138.500 178.574 C 138.500 174.577,138.818 173.721,140.367 173.547 C 141.896 173.374,142.157 174.075,142.163 178.375 L 142.167 181.333 143.519 181.333 L 144.872 181.333 144.808 177.455 C 144.733 172.942,144.570 172.386,143.116 171.683 C 141.794 171.043,139.454 171.362,138.957 172.250 C 138.614 172.862,138.500 172.384,138.500 170.333 L 138.500 168.167 137.250 168.167 L 136.000 168.167 136.000 174.750 M186.795 171.335 C 182.322 172.107,181.529 179.500,185.731 181.253 C 188.531 182.421,191.824 181.054,192.594 178.403 C 193.849 174.087,190.996 170.611,186.795 171.335 M213.128 171.334 C 210.672 171.763,209.194 173.914,209.370 176.808 C 209.784 183.648,219.226 183.262,219.222 176.404 C 219.219 172.859,216.648 170.720,213.128 171.334 M149.021 171.583 C 147.803 171.963,146.833 173.143,146.833 174.245 C 146.833 174.830,149.233 174.913,149.416 174.334 C 149.779 173.192,152.070 173.138,152.402 174.264 C 152.573 174.842,152.018 175.153,150.327 175.427 C 147.540 175.877,146.661 176.553,146.531 178.346 C 146.320 181.274,149.203 182.649,151.777 180.846 C 152.524 180.324,152.667 180.339,152.667 180.944 C 152.667 181.323,152.706 181.333,154.167 181.333 C 155.753 181.333,155.927 181.230,155.375 180.621 C 155.122 180.342,155.072 179.818,155.000 176.658 L 154.917 173.018 154.359 172.443 C 153.388 171.441,150.808 171.026,149.021 171.583 M159.106 171.577 C 157.757 172.058,157.000 173.153,157.000 174.621 C 157.000 176.238,157.548 176.689,160.500 177.505 C 162.632 178.095,162.833 178.203,162.833 178.765 C 162.833 179.977,159.710 179.810,159.401 178.581 C 159.301 178.183,159.246 178.167,157.960 178.167 L 156.623 178.167 156.715 178.853 C 156.950 180.604,158.547 181.583,161.167 181.583 C 164.160 181.583,165.417 180.642,165.417 178.399 C 165.417 176.535,164.811 176.004,161.819 175.247 C 159.589 174.682,159.159 174.341,159.833 173.667 C 160.543 172.957,162.667 173.452,162.667 174.326 C 162.667 174.432,163.185 174.500,164.003 174.500 L 165.340 174.500 165.235 174.042 C 164.722 171.787,161.806 170.615,159.106 171.577 M176.204 171.676 C 175.811 171.876,175.401 172.199,175.291 172.395 C 175.103 172.730,175.088 172.718,175.005 172.167 L 174.917 171.583 173.667 171.583 L 172.417 171.583 172.372 176.458 L 172.328 181.333 173.664 181.333 L 175.000 181.333 175.000 178.328 C 175.000 174.313,175.428 173.357,177.142 173.549 C 178.495 173.700,178.649 174.198,178.659 178.458 L 178.667 181.333 179.917 181.333 L 181.167 181.333 181.163 177.458 C 181.159 173.027,181.049 172.533,179.916 171.833 C 178.990 171.261,177.169 171.184,176.204 171.676 M202.125 171.571 C 199.735 172.424,198.577 175.453,199.449 178.572 C 200.663 182.915,207.218 182.617,208.106 178.180 L 208.208 177.667 206.865 177.667 C 205.615 177.667,205.515 177.692,205.417 178.042 C 204.934 179.767,203.006 179.982,202.250 178.396 C 200.813 175.384,203.848 171.588,205.346 174.524 L 205.673 175.167 206.827 175.167 C 208.208 175.167,208.267 175.097,207.914 173.884 C 207.310 171.807,204.552 170.705,202.125 171.571 M224.863 171.672 C 224.558 171.858,224.129 172.214,223.910 172.463 L 223.511 172.917 223.505 172.208 L 223.500 171.500 222.250 171.500 L 221.000 171.500 221.000 176.417 L 221.000 181.333 222.333 181.333 L 223.667 181.333 223.667 178.408 C 223.667 174.593,223.968 174.000,225.908 174.000 L 226.667 174.000 226.667 172.667 L 226.667 171.333 226.042 171.334 C 225.698 171.334,225.167 171.487,224.863 171.672 M232.167 171.510 C 231.938 171.606,231.506 171.921,231.208 172.209 L 230.667 172.732 230.667 172.116 L 230.667 171.500 229.417 171.500 L 228.167 171.500 228.167 176.417 L 228.167 181.333 229.417 181.333 L 230.667 181.333 230.667 178.574 C 230.667 174.630,230.981 173.749,232.460 173.551 C 234.066 173.335,234.333 173.992,234.333 178.161 L 234.333 181.333 235.667 181.333 L 237.000 181.333 236.993 177.708 C 236.984 173.369,236.841 172.723,235.719 171.939 C 234.944 171.398,232.993 171.162,232.167 171.510 M241.074 171.729 C 237.518 173.385,237.545 179.619,241.115 181.198 C 243.639 182.314,247.500 180.819,247.500 178.725 C 247.500 178.054,245.231 178.136,244.613 178.830 C 243.520 180.056,241.490 179.426,241.222 177.776 L 241.123 177.167 244.416 177.167 L 247.709 177.167 247.633 175.852 C 247.424 172.242,244.253 170.249,241.074 171.729 M253.404 171.570 C 253.122 171.693,252.653 172.082,252.362 172.435 L 251.833 173.076 251.833 172.281 L 251.833 171.485 250.625 171.534 L 249.417 171.583 249.372 176.458 L 249.328 181.333 250.664 181.333 L 252.000 181.333 252.000 178.484 C 252.000 174.658,252.329 174.000,254.242 174.000 L 255.000 174.000 255.000 172.667 L 255.000 171.333 254.458 171.340 C 254.160 171.343,253.686 171.447,253.404 171.570 M188.913 173.695 C 190.621 174.474,190.527 178.366,188.780 179.226 C 187.022 180.091,185.491 178.460,185.715 175.963 C 185.894 173.978,187.317 172.968,188.913 173.695 M215.439 173.820 C 216.514 174.475,216.899 177.315,216.067 178.453 C 214.890 180.064,212.692 179.613,212.162 177.651 C 211.403 174.847,213.364 172.554,215.439 173.820 M244.330 173.996 C 244.769 174.466,245.055 175.223,244.865 175.413 C 244.704 175.574,241.354 175.502,241.251 175.335 C 241.105 175.099,241.647 174.033,242.059 173.744 C 242.686 173.305,243.800 173.429,244.330 173.996 M152.439 177.612 C 152.205 179.313,150.352 180.367,149.415 179.331 C 148.635 178.469,149.217 177.444,150.644 177.167 C 151.160 177.067,151.733 176.922,151.917 176.846 C 152.428 176.634,152.548 176.811,152.439 177.612 M259.667 180.000 L 259.667 181.333 261.000 181.333 L 262.333 181.333 262.333 180.000 L 262.333 178.667 261.000 178.667 L 259.667 178.667 259.667 180.000 " stroke="none" fill="#060606" fill-rule="evenodd"></path></g></svg>