<svg id="svg" version="1.1" xmlns="http://www.w3.org/2000/svg" xmlns:xlink="http://www.w3.org/1999/xlink" width="400" height="246.70658682634732" viewBox="0, 0, 400,246.70658682634732"><g id="svgg"><path id="path0" d="M-0.000 6.292 C -0.000 9.798,0.061 12.606,0.136 12.531 C 0.309 12.358,0.302 0.220,0.129 0.046 C 0.058 -0.024,-0.000 2.786,-0.000 6.292 M0.740 0.370 C 0.740 0.699,23.086 0.740,200.370 0.740 C 377.654 0.740,400.000 0.699,400.000 0.370 C 400.000 0.041,377.654 0.000,200.370 0.000 C 23.086 0.000,0.740 0.041,0.740 0.370 M0.308 106.780 C 0.139 107.143,0.009 108.056,0.020 108.809 L 0.040 110.179 0.402 109.349 C 0.881 108.253,0.789 105.751,0.308 106.780 M52.067 111.498 C 44.947 113.679,41.843 121.470,45.557 127.834 C 49.978 135.407,61.225 134.947,65.081 127.035 C 69.243 118.497,61.070 108.741,52.067 111.498 M57.831 114.752 C 61.362 116.073,63.645 120.022,62.916 123.550 C 61.212 131.807,50.238 132.492,47.542 124.509 C 45.491 118.435,51.767 112.484,57.831 114.752 M0.026 193.967 L 0.053 195.312 0.293 194.234 C 0.460 193.487,0.452 193.074,0.267 192.889 C 0.075 192.697,0.007 193.002,0.026 193.967 M0.541 196.064 C 0.515 196.342,0.376 196.687,0.233 196.830 C 0.090 196.974,0.009 197.743,0.052 198.545 C 0.129 199.962,0.139 199.981,0.446 199.277 C 0.629 198.858,0.725 197.925,0.675 197.057 C 0.628 196.233,0.567 195.786,0.541 196.064 M0.034 211.351 L 0.053 212.832 0.287 211.786 C 0.442 211.095,0.435 210.592,0.268 210.305 C 0.076 209.975,0.020 210.227,0.034 211.351 " stroke="none" fill="#ffffff" fill-rule="evenodd"></path><path id="path1" d="M0.202 4.257 C 0.119 17.943,-0.009 103.163,0.052 105.005 C 0.115 106.923,0.164 107.136,0.417 106.601 C 0.882 105.619,0.837 108.360,0.370 109.478 C -0.105 110.615,-0.192 153.574,0.280 154.143 C 0.476 154.378,0.477 154.473,0.285 154.473 C -0.094 154.473,-0.106 192.419,0.272 192.875 C 0.463 193.104,0.462 193.553,0.269 194.451 C -0.170 196.497,0.102 197.973,0.564 196.052 C 0.630 195.780,0.695 196.280,0.710 197.162 C 0.727 198.171,0.597 199.035,0.360 199.490 C -0.048 200.271,-0.119 204.220,0.263 204.838 C 0.375 205.020,0.354 205.300,0.215 205.467 C 0.062 205.651,0.017 206.669,0.099 208.067 C 0.274 211.056,0.272 209.141,0.114 229.180 L -0.025 246.761 199.987 246.761 L 400.000 246.761 400.000 123.751 L 400.000 0.740 200.370 0.740 C 23.086 0.740,0.740 0.699,0.740 0.370 C 0.740 0.167,0.625 0.000,0.484 0.000 C 0.319 0.000,0.219 1.499,0.202 4.257 M57.857 111.421 C 66.084 113.564,68.979 123.860,63.049 129.886 C 56.930 136.104,46.695 133.413,44.341 124.968 C 42.110 116.967,49.750 109.309,57.857 111.421 M52.530 114.701 C 44.779 117.506,45.698 128.520,53.806 130.002 C 58.063 130.780,62.000 127.991,62.916 123.550 C 64.092 117.853,58.049 112.705,52.530 114.701 " stroke="none" fill="#040404" fill-rule="evenodd"></path></g></svg>