<svg id="svg" version="1.1" xmlns="http://www.w3.org/2000/svg" xmlns:xlink="http://www.w3.org/1999/xlink" width="400" height="233" viewBox="0, 0, 400,233"><g id="svgg"><path id="path0" d="M132.401 116.550 L 132.401 233.100 199.532 233.100 L 266.663 233.100 266.723 207.226 L 266.783 181.352 252.389 181.352 L 237.995 181.352 237.995 179.116 C 237.995 165.658,250.884 150.799,264.076 149.049 C 265.495 148.861,267.016 147.567,266.796 146.737 C 266.729 146.480,266.672 113.360,266.670 73.135 L 266.667 0.000 199.534 0.000 L 132.401 0.000 132.401 116.550 " stroke="none" fill="#f474cc" fill-rule="evenodd"></path><path id="path1" d="M266.667 73.271 C 266.667 113.570,266.739 146.615,266.828 146.704 C 266.917 146.793,267.520 146.350,268.168 145.721 C 279.761 134.467,298.538 143.448,296.311 159.180 L 296.067 160.901 297.487 163.013 C 300.597 167.638,302.374 173.003,302.926 179.429 L 303.091 181.352 288.550 181.353 C 280.553 181.353,272.357 181.422,270.338 181.506 L 266.667 181.658 266.667 207.379 L 266.667 233.100 333.333 233.100 L 400.000 233.100 400.000 116.550 L 400.000 0.000 333.333 0.000 L 266.667 0.000 266.667 73.271 M277.972 141.410 C 265.144 143.470,259.968 158.759,269.016 167.867 C 278.727 177.643,295.571 170.667,295.571 156.870 C 295.571 147.590,286.903 139.975,277.972 141.410 M286.803 147.606 C 288.764 148.192,290.443 150.674,290.443 152.987 C 290.443 156.990,286.264 159.651,282.632 157.960 C 276.191 154.961,279.975 145.566,286.803 147.606 M261.189 150.681 C 256.748 152.143,254.535 153.256,251.326 155.642 C 244.361 160.821,239.387 169.914,238.771 178.596 L 238.625 180.653 270.361 180.653 L 302.098 180.653 302.098 179.295 C 302.098 174.810,299.449 166.875,296.734 163.228 C 295.794 161.965,295.794 161.965,295.038 163.695 C 288.154 179.435,263.749 174.199,263.801 156.993 C 263.808 154.561,263.926 153.881,264.937 150.408 C 265.158 149.648,264.091 149.726,261.189 150.681 " stroke="none" fill="#ccf474" fill-rule="evenodd"></path><path id="path2" d="M0.000 116.550 L 0.000 233.100 66.200 233.100 L 132.401 233.100 132.401 116.550 L 132.401 0.000 66.200 0.000 L 0.000 0.000 0.000 116.550 M11.912 7.758 C 12.840 8.381,13.165 9.557,12.410 9.557 C 12.168 9.557,11.723 9.295,11.422 8.974 C 10.610 8.110,9.485 8.281,8.572 9.410 C 7.795 10.368,8.223 12.993,9.218 13.375 C 10.277 13.782,10.828 13.533,11.959 12.138 C 12.473 11.505,13.077 11.843,12.881 12.654 C 12.259 15.229,8.155 15.242,7.081 12.672 C 5.682 9.323,9.086 5.860,11.912 7.758 M14.777 7.595 C 14.855 7.798,14.918 8.270,14.918 8.644 C 14.918 9.312,14.941 9.324,16.187 9.324 C 17.931 9.324,18.182 9.712,18.182 12.406 C 18.182 15.451,17.282 15.354,16.996 12.279 C 16.677 8.836,14.924 9.736,14.920 13.345 C 14.918 14.496,14.454 14.890,14.096 14.044 C 13.797 13.339,13.690 8.555,13.958 7.867 C 14.237 7.150,14.564 7.041,14.777 7.595 M30.500 7.795 C 30.605 8.339,30.245 8.677,29.759 8.491 C 29.302 8.315,29.257 7.899,29.653 7.503 C 30.018 7.138,30.398 7.270,30.500 7.795 M23.070 9.665 C 23.226 9.853,23.440 10.666,23.547 11.472 C 23.653 12.278,23.811 13.264,23.898 13.663 L 24.055 14.388 22.226 14.514 C 18.383 14.777,17.808 11.979,21.544 11.202 C 22.410 11.022,22.579 10.550,21.873 10.285 C 21.472 10.135,21.166 10.196,20.710 10.519 C 19.520 11.359,18.817 10.787,19.814 9.790 C 20.395 9.209,22.620 9.124,23.070 9.665 M28.012 9.710 C 28.550 10.197,28.570 10.956,28.045 10.956 C 27.829 10.956,27.415 10.733,27.125 10.460 C 26.811 10.165,26.444 10.023,26.218 10.110 C 25.577 10.356,25.943 11.009,26.908 11.343 C 28.510 11.897,29.011 12.682,28.443 13.744 C 27.945 14.674,25.702 14.979,24.942 14.219 C 23.933 13.210,24.683 12.443,25.841 13.299 C 26.580 13.845,27.273 13.782,27.273 13.169 C 27.273 12.955,26.816 12.611,26.166 12.335 C 24.450 11.610,24.019 10.713,24.942 9.790 C 25.540 9.192,27.387 9.144,28.012 9.710 M30.536 11.888 L 30.536 14.452 29.953 14.452 L 29.371 14.452 29.371 11.888 L 29.371 9.324 29.953 9.324 L 30.536 9.324 30.536 11.888 M34.777 9.566 C 35.250 9.697,35.686 9.985,35.746 10.205 C 36.081 11.445,36.137 12.036,36.004 12.923 C 35.666 15.178,35.010 14.885,34.732 12.354 C 34.348 8.853,32.646 9.752,32.637 13.462 C 32.634 14.362,32.581 14.452,32.051 14.452 C 31.465 14.452,31.138 10.922,31.610 9.693 C 31.777 9.257,33.426 9.191,34.777 9.566 M41.259 12.256 C 41.259 16.139,39.776 17.725,37.581 16.187 C 36.526 15.448,37.095 14.682,38.254 15.281 C 38.826 15.577,39.116 15.607,39.543 15.412 C 40.473 14.989,40.211 14.528,38.943 14.360 C 35.362 13.885,35.890 9.324,39.526 9.324 L 41.259 9.324 41.259 12.256 M38.362 10.623 C 37.540 11.445,38.242 14.002,39.190 13.638 C 40.211 13.246,40.444 10.844,39.495 10.484 C 38.740 10.197,38.794 10.190,38.362 10.623 M21.520 12.284 C 20.869 12.410,20.423 12.949,20.596 13.400 C 20.784 13.890,21.358 13.841,21.911 13.287 C 22.364 12.834,22.556 12.089,22.203 12.153 C 22.107 12.170,21.800 12.229,21.520 12.284 " stroke="none" fill="#74ccf4" fill-rule="evenodd"></path><path id="path3" d="M8.464 7.710 C 6.455 8.997,6.215 12.507,8.037 13.941 C 9.696 15.245,12.430 14.519,12.881 12.654 C 13.077 11.843,12.473 11.505,11.959 12.138 C 10.828 13.533,10.277 13.782,9.218 13.375 C 8.223 12.993,7.795 10.368,8.572 9.410 C 9.485 8.281,10.610 8.110,11.422 8.974 C 12.182 9.784,12.875 9.758,12.778 8.924 C 12.607 7.456,10.004 6.724,8.464 7.710 M13.958 7.867 C 13.690 8.555,13.797 13.339,14.096 14.044 C 14.454 14.890,14.918 14.496,14.920 13.345 C 14.924 9.736,16.677 8.836,16.996 12.279 C 17.282 15.354,18.182 15.451,18.182 12.406 C 18.182 9.712,17.931 9.324,16.187 9.324 C 14.941 9.324,14.918 9.312,14.918 8.644 C 14.918 7.205,14.384 6.773,13.958 7.867 M29.653 7.503 C 29.257 7.899,29.302 8.315,29.759 8.491 C 30.245 8.677,30.605 8.339,30.500 7.795 C 30.398 7.270,30.018 7.138,29.653 7.503 M19.814 9.790 C 18.817 10.787,19.520 11.359,20.710 10.519 C 21.166 10.196,21.472 10.135,21.873 10.285 C 22.579 10.550,22.410 11.022,21.544 11.202 C 17.808 11.979,18.383 14.777,22.226 14.514 L 24.055 14.388 23.898 13.663 C 23.811 13.264,23.653 12.278,23.547 11.472 C 23.293 9.554,23.078 9.324,21.533 9.324 C 20.591 9.324,20.164 9.440,19.814 9.790 M24.942 9.790 C 24.019 10.713,24.450 11.610,26.166 12.335 C 26.816 12.611,27.273 12.955,27.273 13.169 C 27.273 13.782,26.580 13.845,25.841 13.299 C 24.683 12.443,23.933 13.210,24.942 14.219 C 25.702 14.979,27.945 14.674,28.443 13.744 C 29.011 12.682,28.510 11.897,26.908 11.343 C 25.943 11.009,25.577 10.356,26.218 10.110 C 26.444 10.023,26.811 10.165,27.125 10.460 C 27.778 11.073,28.438 11.106,28.438 10.526 C 28.438 9.354,25.910 8.822,24.942 9.790 M29.371 11.888 L 29.371 14.452 29.953 14.452 L 30.536 14.452 30.536 11.888 L 30.536 9.324 29.953 9.324 L 29.371 9.324 29.371 11.888 M31.610 9.693 C 31.138 10.922,31.465 14.452,32.051 14.452 C 32.581 14.452,32.634 14.362,32.637 13.462 C 32.646 9.752,34.348 8.853,34.732 12.354 C 35.010 14.885,35.666 15.178,36.004 12.923 C 36.137 12.036,36.081 11.445,35.746 10.205 C 35.527 9.395,31.897 8.945,31.610 9.693 M37.281 10.045 C 35.920 11.956,36.733 14.067,38.943 14.360 C 40.211 14.528,40.473 14.989,39.543 15.412 C 39.116 15.607,38.826 15.577,38.254 15.281 C 37.095 14.682,36.526 15.448,37.581 16.187 C 39.776 17.725,41.259 16.139,41.259 12.256 L 41.259 9.324 39.526 9.324 C 37.856 9.324,37.776 9.350,37.281 10.045 M39.495 10.484 C 40.444 10.844,40.211 13.246,39.190 13.638 C 38.242 14.002,37.540 11.445,38.362 10.623 C 38.794 10.190,38.740 10.197,39.495 10.484 M22.378 12.471 C 22.378 12.926,21.546 13.753,21.088 13.753 C 20.607 13.753,20.395 13.127,20.737 12.715 C 20.975 12.428,21.233 12.329,22.203 12.153 C 22.299 12.135,22.378 12.279,22.378 12.471 M275.408 141.228 C 273.056 142.042,272.023 142.579,270.261 143.903 C 269.006 144.846,268.351 145.493,265.944 148.162 C 265.434 148.728,265.024 148.923,264.084 149.048 C 250.892 150.798,237.995 165.654,237.995 179.100 L 237.995 181.320 253.671 181.394 C 262.293 181.435,276.926 181.436,286.189 181.395 L 303.031 181.322 302.902 179.647 C 302.396 173.042,300.652 167.720,297.419 162.912 L 296.067 160.901 296.311 159.180 C 297.951 147.598,286.189 137.496,275.408 141.228 M284.788 142.085 C 293.958 145.160,298.185 155.159,293.948 163.753 C 287.857 176.107,269.760 174.945,265.276 161.912 C 261.167 149.967,272.859 138.086,284.788 142.085 M282.751 147.690 C 280.134 148.822,278.634 152.154,279.600 154.685 C 282.282 161.708,292.481 158.047,290.057 150.931 C 289.080 148.063,285.529 146.489,282.751 147.690 M264.937 150.408 C 263.151 156.541,263.331 160.109,265.652 164.608 C 271.689 176.312,289.765 175.750,295.038 163.695 C 295.794 161.965,295.794 161.965,296.734 163.228 C 299.449 166.875,302.098 174.810,302.098 179.295 L 302.098 180.653 270.361 180.653 L 238.625 180.653 238.771 178.596 C 239.573 167.291,247.525 156.040,257.598 151.959 C 262.185 150.100,265.213 149.460,264.937 150.408 " stroke="none" fill="#e9f6f0" fill-rule="evenodd"></path></g></svg>