<svg id="svg" version="1.1" xmlns="http://www.w3.org/2000/svg" xmlns:xlink="http://www.w3.org/1999/xlink" width="400" height="324.44444444444446" viewBox="0, 0, 400,324.44444444444446"><g id="svgg"><path id="path0" d="M281.976 160.552 C 281.976 183.766,282.014 193.215,282.062 181.549 C 282.109 169.884,282.109 150.890,282.062 139.342 C 282.014 127.793,281.976 137.338,281.976 160.552 M201.299 160.552 L 201.299 199.351 240.097 199.351 L 278.896 199.351 278.896 160.552 L 278.896 121.753 240.097 121.753 L 201.299 121.753 201.299 160.552 " stroke="none" fill="#fc04cc" fill-rule="evenodd"></path><path id="path1" d="M198.052 160.552 L 198.052 202.597 239.935 202.597 L 281.818 202.597 281.818 160.552 L 281.818 118.506 239.935 118.506 L 198.052 118.506 198.052 160.552 M278.896 160.552 L 278.896 199.351 240.097 199.351 L 201.299 199.351 201.299 160.552 L 201.299 121.753 240.097 121.753 L 278.896 121.753 278.896 160.552 " stroke="none" fill="#fcfcfc" fill-rule="evenodd"></path><path id="path2" d="M0.000 162.338 L 0.000 324.675 200.000 324.675 L 400.000 324.675 400.000 162.338 L 400.000 0.000 200.000 0.000 L 0.000 0.000 0.000 162.338 M282.143 160.552 L 282.143 202.597 240.097 202.597 L 198.052 202.597 198.052 160.552 L 198.052 118.506 240.097 118.506 L 282.143 118.506 282.143 160.552 " stroke="none" fill="#040404" fill-rule="evenodd"></path></g></svg>